PathFileType	4	(X/Y/Z)	C:\ABL_Data\ExoAging\Piloting\Dec 6 2019\Generated_files\static_2.trc
DataRate	CameraRate	NumFrames	NumMarkers	Units	OrigDataRate	OrigDataStartFrame	OrigNumFrames
100.00	100.00	       11	20	mm	100.00	498	       568
Frame#	Time	R.Acromium			L.Acromium			Sternum			R.ASIS			R.PSIS			S2			L.PSIS			L.ASIS			R.Knee			R.Ankle			L.Knee			L.Ankle			R.MKnee			R.MAnkle			L.MKnee			L.MAnkle			C7			T12			Clav			R.Back			
		X1	Y1	Z1	X2	Y2	Z2	X3	Y3	Z3	X4	Y4	Z4	X5	Y5	Z5	X6	Y6	Z6	X7	Y7	Z7	X8	Y8	Z8	X9	Y9	Z9	X10	Y10	Z10	X11	Y11	Z11	X12	Y12	Z12	X13	Y13	Z13	X14	Y14	Z14	X15	Y15	Z15	X16	Y16	Z16	X17	Y17	Z17	X18	Y18	Z18	X19	Y19	Z19	X20	Y20	Z20	

498	4.970	840.21405	385.78406	1494.11511	849.55792	789.93549	1483.52625				911.42163	448.88168	1005.04218	728.11786	527.39996	1046.96204	709.80273	581.08936	1022.64929	732.21912	630.65436	1050.67725	918.47498	707.78888	1017.83295	817.75146	383.00659	512.28870	759.10541	378.47623	86.32407	817.94507	765.01483	509.62976	766.78369	775.43799	78.72095	840.75104	495.16342	488.84088	803.68073	458.47794	92.03339	828.49396	651.83893	486.94156	783.72791	685.41370	93.50253	759.17114	573.56915	1556.05151	733.65350	582.07617	1187.79675	918.83899	578.74469	1458.40552	692.32275	458.63681	1395.93774	
499	4.980	840.24744	385.79575	1494.10962	849.58990	789.89697	1483.44568				911.43048	448.88147	1005.05170	728.13611	527.40002	1046.94360	709.85400	581.11951	1022.62439	732.24066	630.65308	1050.70264	918.44019	707.81268	1017.82513	817.78363	382.94763	512.32263	759.09570	378.42316	86.36267	818.00409	765.00452	509.61246	766.73438	775.47461	78.75269	840.72394	495.17633	488.87518	803.62994	458.45374	92.00387	828.41272	651.85901	486.95297	783.69537	685.40100	93.51801	759.24713	573.53284	1556.03015	733.67798	582.07971	1187.78955	918.88776	578.74164	1458.37939	692.33624	458.68640	1395.90125	
500	4.990	840.28424	385.79089	1494.10254	849.59131	789.90839	1483.38538				911.42310	448.87161	1005.04120	728.18854	527.43958	1046.93140	709.88068	581.15326	1022.60608	732.28125	630.61383	1050.71265	918.40686	707.80292	1017.81854	817.82312	382.99210	512.35248	759.09186	378.43558	86.35017	818.03552	765.02136	509.61450	766.69055	775.49866	78.79295	840.64276	495.21432	488.91409	803.93237	458.29434	91.82856	828.44989	651.82153	486.99088	783.61890	685.39093	93.56818	759.28790	573.67365	1556.03528	733.71240	582.11389	1187.77625	918.91180	578.77441	1458.33411	692.39447	458.65918	1395.92407	
501	5.000	840.34607	385.83328	1494.07642	849.63330	789.90521	1483.39661				911.46924	448.83856	1005.05957	728.22314	527.45251	1046.93298	709.90979	581.15656	1022.59528	732.32056	630.64246	1050.70349	918.44098	707.78809	1017.83502	817.85370	382.99728	512.41479	759.07257	378.46289	86.36234	818.07367	765.02673	509.61240	766.61578	775.51447	78.85712	840.63611	495.18549	488.91635	803.60529	458.47168	92.01347	828.47278	651.84436	486.95013	783.61487	685.38397	93.57546	759.31824	573.65167	1556.04736	733.78210	582.06415	1187.76477	918.94153	578.77277	1458.29004	692.40967	458.63330	1395.95215	
502	5.010	840.36121	385.76892	1494.08960	849.65869	789.89435	1483.45740				911.51904	448.87854	1005.03290	728.27045	527.41077	1046.98096	709.95374	581.14471	1022.64014	732.33649	630.63574	1050.74609	918.22675	707.57416	1017.62225	817.88934	382.96994	512.39240	759.09082	378.47073	86.38407	818.08630	764.98560	509.64807	766.69080	775.51868	78.88155	840.74139	495.19806	488.96426	803.65735	458.45834	92.03345	828.54132	651.85095	486.93546	783.65210	685.41669	93.57638	759.36951	573.55530	1556.08862	733.80756	582.05341	1187.84106	919.01019	578.67633	1458.36536	692.47186	458.62509	1395.94104	
503	5.020	840.40436	385.78021	1494.11414	849.65985	789.82532	1483.51025				911.61407	448.88095	1005.01141	728.31116	527.40027	1047.01257	709.99762	581.14587	1022.68866	732.39740	630.59625	1050.76282	918.58997	707.77649	1017.80542	817.91412	382.99173	512.40149	759.11682	378.48016	86.39912	818.14557	764.95697	509.64258	766.78510	775.45398	78.79558	840.84314	495.15686	488.91336	803.66071	458.46323	92.02787	828.65894	651.80267	486.99902	783.75751	685.40399	93.54601	759.40515	573.52820	1556.13770	733.83966	581.99451	1187.89575	919.07269	578.61914	1458.41748	692.53918	458.57217	1395.97009	
504	5.030	840.43341	385.64783	1494.06396	849.64960	789.85999	1483.54688				911.68353	448.87177	1004.99701	728.34998	527.37738	1047.01758	710.02039	581.13171	1022.70874	732.46844	630.60870	1050.74182	918.65485	707.79254	1017.84912	817.92133	382.96915	512.38861	759.11926	378.44049	86.38579	818.14136	764.96698	509.67786	766.83270	775.45514	78.80319	840.88824	495.14548	488.87967	803.72144	458.47467	92.04876	828.69617	651.77124	486.96204	783.81348	685.42407	93.50554	759.43018	573.45898	1556.14575	733.89404	582.01971	1187.90625	919.11755	578.55792	1458.42090	692.57343	458.53922	1395.95154	
505	5.040	840.48035	385.76837	1494.06738	849.65991	789.81024	1483.51501				911.72400	448.86423	1005.01025	728.41473	527.44147	1047.00098	710.08911	581.14246	1022.70349	732.47784	630.61694	1050.74353	918.65381	707.77246	1017.83240	817.93976	382.97745	512.38556	759.10547	378.44757	86.38134	818.15533	764.99304	509.67563	766.74609	775.48413	78.83817	840.88599	495.16452	488.92258	803.70410	458.45859	92.01302	828.68829	651.77673	486.93256	783.76666	685.39355	93.53455	759.49176	573.52283	1556.13086	733.90826	582.01056	1187.85889	919.14319	578.58374	1458.40149	692.64331	458.51746	1395.91370	
506	5.050	840.55054	385.67877	1494.07239	849.66248	789.85614	1483.46033				911.71832	448.87601	1005.02307	728.46387	527.44269	1046.96277	710.11694	581.16125	1022.67792	732.51819	630.64307	1050.77979	918.32123	707.58514	1017.57837	817.97449	383.01968	512.37067	759.09991	378.44931	86.40800	818.15857	764.99426	509.64343	766.73071	775.47845	78.85841	840.78668	495.19623	488.92480	803.62036	458.49023	92.07619	828.68665	651.75702	486.98526	783.68445	685.40845	93.57722	759.50787	573.59717	1556.05042	733.97467	582.05438	1187.83508	919.17474	578.66656	1458.31848	692.69543	458.52377	1395.91003	
507	5.060	840.57324	385.66214	1494.05725	849.72412	789.80035	1483.40808				911.74603	448.88052	1005.01056	728.52399	527.42310	1046.95154	710.20038	581.18567	1022.64276	732.56250	630.59808	1050.77332	918.62250	707.81171	1017.82599	817.96100	382.99826	512.40082	759.10162	378.46198	86.41547	818.19635	765.00085	509.62854	766.65277	775.51379	78.88968	840.73901	495.22998	488.96848	803.63220	458.44766	92.02877	828.69867	651.77887	486.99005	783.65118	685.38281	93.61244	759.56177	573.57300	1556.02783	734.08472	582.03943	1187.81006	919.20654	578.67096	1458.27393	693.22314	458.60611	1395.72144	
508	5.070	840.62885	385.66238	1494.02124	849.73987	789.76154	1483.44812				911.77734	448.88489	1004.96399	728.57440	527.45331	1046.96521	710.24438	581.16333	1022.66632	732.60107	630.58038	1050.77380	918.66284	707.82227	1017.79938	817.95459	383.02454	512.36115	759.09729	378.45920	86.40247	818.22253	765.00647	509.65057	766.72711	775.48364	78.84917	840.79053	495.18997	488.92108	803.63513	458.46912	92.05894	828.75690	651.80072	487.02185	783.69843	685.37567	93.58971	759.59125	573.44586	1556.03003	734.14850	581.94202	1187.79712	919.22961	578.63489	1458.29053	692.78625	458.45947	1395.88794	
